<svg width="130" height="130" viewBox="0 0 130 130" fill="none" xmlns="http://www.w3.org/2000/svg">
<path fill-rule="evenodd" clip-rule="evenodd" d="M95.1988 42.1276C97.0157 43.9371 97.0216 46.8768 95.2122 48.6936L56.0913 87.9735C54.2819 89.7902 51.3423 89.7963 49.5255 87.9869L35.2583 73.7789C33.4414 71.9696 33.4353 69.0299 35.2446 67.213C37.054 65.396 39.9937 65.3899 41.8106 67.1993L52.7882 78.1313L88.6329 42.1409C90.4423 40.3241 93.382 40.3182 95.1988 42.1276Z" fill="#20BF55"/>
<path fill-rule="evenodd" clip-rule="evenodd" d="M64.7297 13.2491C40.1191 13.2491 19.4726 30.434 14.1727 53.4554L14.1727 53.4555C13.3099 57.2027 12.8531 61.1086 12.8531 65.1257C12.8531 93.7546 36.1008 117.002 64.7297 117.002C93.3586 117.002 116.606 93.7546 116.606 65.1257C116.606 36.4968 93.3586 13.2491 64.7297 13.2491ZM5.12366 51.3722C11.3717 24.2321 35.6948 3.96338 64.7297 3.96338C98.487 3.96338 125.892 31.3684 125.892 65.1257C125.892 98.883 98.487 126.288 64.7297 126.288C30.9724 126.288 3.56738 98.883 3.56738 65.1257C3.56738 60.4023 4.10479 55.7976 5.12366 51.3722Z" fill="#20BF55" fill-opacity="0.6"/>
</svg>
